<svg xmlns="http://www.w3.org/2000/svg" xmlns:xlink="http://www.w3.org/1999/xlink" width="100%" height="100%" viewBox="0 0 24 24"><rect id="svgEditorBackground" width="24" height="24" x="0" y="0" fill="none" stroke="none"/><circle cx="12" cy="12" r="1" fill="#fff"/><path fill="#7289DA" d="M12,2a10.00082,10.00082,0,0,0,-7.74316,16.3291l-1.9638400000000003,1.9638999999999989a0.99991,0.99991,0,0,0,0.7069999999999999,1.7070000000000007h9a10,10,0,0,0,0,-20ZM8,13a1,1,0,1,1,1,-1a1,1,0,0,1,-1,1ZM12,13a1,1,0,1,1,1,-1a1,1,0,0,1,-1,1ZM16,13a1,1,0,1,1,1,-1a1,1,0,0,1,-1,1Z"/><circle cx="8" cy="12" r="1" fill="#fff"/><circle cx="16" cy="12" r="1" fill="#fff"/></svg>