<svg version="1.0" xmlns="http://www.w3.org/2000/svg" width="128px" height="128px" viewBox="0 0 1280 1280" preserveAspectRatio="xMidYMid meet"  xmlns:xlink="http://www.w3.org/1999/xlink"><rect id="svgEditorBackground" x="0" y="0" width="1280" height="1280" style="fill:none;stroke:none;"/>
<g id="layer101" fill="#7289da" stroke="none">
 <path d="M570 1260 c0 -29 33 -82 62 -100 31 -19 50 -20 298 -20 245 0 267 2 294 19 34 23 55 56 56 89 l0 22 -355 0 c-237 0 -355 -3 -355 -10z"/>
 <path d="M43,1180c-30,-12,-43,-40,-43,-91c0,-43,2,-45,247,-290l246,-248l-21,-50c-12,-27,-22,-58,-22,-68c0,-10,59,-77,133,-151c148,-148,150,-149,236,-105c99,49,211,179,226,263c6,35,4,37,-133,168c-77,72,-148,132,-157,132c-9,0,-38,-10,-65,-21l-50,-21l-232,227c-128,125,-246,236,-263,246c-32,20,-67,23,-102,9Z"/>
 <path d="M804 865 c-31 -47 -13 -74 149 -230 121 -116 157 -145 179 -145 37 0 68 32 68 72 0 27 -19 50 -152 179 -141 136 -156 148 -190 149 -29 0 -41 -6 -54 -25z"/>
 <path d="M322 384 c-16 -11 -22 -25 -22 -52 0 -33 11 -48 149 -185 l148 -148 44 3 c37 3 46 7 58 32 20 43 6 63 -161 224 -153 148 -170 158 -216 126z"/>
 </g>

</svg>
