<svg xmlns="http://www.w3.org/2000/svg" xmlns:xlink="http://www.w3.org/1999/xlink" width="640" height="640" preserveAspectRatio="xMidYMid meet" version="1.1" viewBox="0 0 640 640"><rect id="svgEditorBackground" width="640" height="640" x="0" y="0" fill="none" stroke="none"/><defs><path id="aYXjsZzOh" d="M20.68 212.52L619.32 212.52L619.32 579.86L20.68 579.86L20.68 212.52Z"/><path id="b1mDtbPZ0v" d="M210.48 158.78L428.16 158.78L428.16 231.56L210.48 231.56L210.48 158.78Z"/><path id="avoUfPH0" d="M359.12 102.65C359.12 124.62 341.28 142.45 319.32 142.45C297.36 142.45 279.52 124.62 279.52 102.65C279.52 80.69 297.36 62.86 319.32 62.86C341.28 62.86 359.12 80.69 359.12 102.65Z"/><path id="aNzHuHjSq" d="M453.16 132.74C404.88 132.74 378.06 132.74 372.7 132.74C378.24 123.51 381.44 112.71 381.44 101.18C381.44 67.3 353.88 39.73 320 39.73C286.12 39.73 258.56 67.3 258.56 101.18C258.56 112.71 261.75 123.51 267.3 132.74C261.94 132.74 235.12 132.74 186.84 132.74L186.84 195.98L0 195.98L0 600.27L640 600.27L640 195.98L453.16 195.98L453.16 132.74ZM350.84 101.18C350.84 118.18 337 132.02 320 132.02C302.99 132.02 289.16 118.18 289.16 101.18C289.16 84.17 303 70.34 320 70.34C337 70.34 350.84 84.17 350.84 101.18ZM422.55 163.34L422.55 220.89L217.45 220.89L217.45 163.34L422.55 163.34ZM30.6 569.66L30.6 226.58L186.84 226.58L186.84 251.49L453.16 251.49L453.16 226.58L609.39 226.58L609.39 569.66L609.4 569.66L30.6 569.66Z"/><path id="c1HUSYwpY7" d="M225.18 347.27C225.18 316.07 199.79 290.68 168.59 290.68C137.38 290.68 112 316.07 112 347.27C112 361.48 117.27 374.47 125.95 384.42C98.54 399.64 79.95 428.88 79.95 462.38C79.95 465.55 79.95 481.37 79.95 509.86L259.69 509.86C259.69 481.37 259.69 465.55 259.69 462.38C259.69 428.19 240.33 398.46 212.01 383.52C220.22 373.69 225.18 361.05 225.18 347.27ZM194.58 347.27C194.58 361.6 182.92 373.26 168.59 373.26C154.26 373.26 142.6 361.6 142.6 347.27C142.6 332.94 154.26 321.28 168.59 321.28C182.92 321.28 194.58 332.94 194.58 347.27ZM110.56 479.25C110.56 469.13 110.56 463.5 110.56 462.38C110.56 430.11 136.81 403.86 169.08 403.86C169.22 403.86 170.42 403.86 170.57 403.86C202.83 403.86 229.09 430.11 229.09 462.38C229.09 463.5 229.09 469.13 229.09 479.25L110.56 479.25Z"/><path id="eadVTxcWD" d="M557.15 299.46C557.15 299.46 557.15 299.46 557.15 299.46C557.15 317.82 557.15 328.02 557.15 330.06C557.15 330.06 557.15 330.06 557.15 330.06C425.21 330.06 351.91 330.06 337.25 330.06C337.25 330.06 337.25 330.06 337.25 330.06C337.25 311.7 337.25 301.5 337.25 299.46C337.25 299.46 337.25 299.46 337.25 299.46C469.19 299.46 542.49 299.46 557.15 299.46Z"/><path id="ccFBPnorN" d="M557.15 382.82C557.15 382.82 557.15 382.82 557.15 382.82C557.15 401.18 557.15 411.38 557.15 413.42C557.15 413.42 557.15 413.42 557.15 413.42C425.21 413.42 351.91 413.42 337.25 413.42C337.25 413.42 337.25 413.42 337.25 413.42C337.25 395.06 337.25 384.86 337.25 382.82C337.25 382.82 337.25 382.82 337.25 382.82C469.19 382.82 542.49 382.82 557.15 382.82Z"/><path id="g7jXfIlEeC" d="M557.15 466.18C557.15 466.18 557.15 466.18 557.15 466.18C557.15 484.54 557.15 494.74 557.15 496.78C557.15 496.78 557.15 496.78 557.15 496.78C425.21 496.78 351.91 496.78 337.25 496.78C337.25 496.78 337.25 496.78 337.25 496.78C337.25 478.42 337.25 468.22 337.25 466.18C337.25 466.18 337.25 466.18 337.25 466.18C469.19 466.18 542.49 466.18 557.15 466.18Z"/></defs><g><g><g><use fill="#fff" fill-opacity="1" opacity="1" xlink:href="#aYXjsZzOh"/></g><g><use fill="#fff" fill-opacity="1" opacity="1" xlink:href="#b1mDtbPZ0v"/></g><g><use fill="#fff" fill-opacity="1" opacity="1" xlink:href="#avoUfPH0"/></g><g><use fill="#7289da" fill-opacity="1" opacity="1" xlink:href="#aNzHuHjSq"/><g><use fill-opacity="0" stroke="#000" stroke-opacity="0" stroke-width="1" opacity="1" xlink:href="#aNzHuHjSq"/></g></g><g><use fill="#7289da" fill-opacity="1" opacity="1" xlink:href="#c1HUSYwpY7"/></g><g><use fill="#7289da" fill-opacity="1" opacity="1" xlink:href="#eadVTxcWD"/></g><g><use fill="#7289da" fill-opacity="1" opacity="1" xlink:href="#ccFBPnorN"/></g><g><use fill="#7289da" fill-opacity="1" opacity="1" xlink:href="#g7jXfIlEeC"/></g></g></g></svg>