<svg xmlns="http://www.w3.org/2000/svg" xmlns:xlink="http://www.w3.org/1999/xlink" width="100%" height="100%" viewBox="0 0 32 32"><rect id="svgEditorBackground" width="32" height="32" x="0" y="0" fill="none" stroke="none"/><path fill="#eef2fa" d="M2 16c0 7.5 6 13.5 13.5 13.5S29 23.5 29 16 23 2.5 15.5 2.5 2 8.5 2 16zm21 0c0 4.1-3.4 7.5-7.5 7.5S8 20.1 8 16s3.4-7.5 7.5-7.5S23 11.9 23 16z"/><path fill="#d5e5f2" d="M16.5 23.4c.3 0 .7.1 1 .1 4.1 0 7.5-3.4 7.5-7.5s-3.4-7.5-7.5-7.5c-.3 0-.7 0-1 .1 3.7.5 6.5 3.6 6.5 7.4s-2.8 6.9-6.5 7.4zM4 16C4 8.9 9.5 3.1 16.5 2.6c-.3 0-.7-.1-1-.1C8 2.5 2 8.5 2 16s6 13.5 13.5 13.5c.3 0 .7 0 1-.1C9.5 28.9 4 23.1 4 16z"/><path fill="#7289DA" d="M15.5,23.5c-1,0,-1.9000000000000004,-0.1999999999999993,-2.8000000000000007,-0.6000000000000014l-1.3000000000000007,5.899999999999999c1.3000000000000007,0.3999999999999986,2.6999999999999993,0.6999999999999993,4.1,0.6999999999999993s2.799999999999999,-0.1999999999999993,4.1,-0.6999999999999993l-1.3000000000000007,-5.899999999999999c-0.8999999999999986,0.3999999999999986,-1.8000000000000007,0.6000000000000014,-2.8000000000000007,0.6000000000000014ZM28.3,11.9l-5.900000000000002,1.3000000000000007c0.3999999999999986,0.9000000000000004,0.6000000000000014,1.8000000000000007,0.6000000000000014,2.799999999999999s-0.1999999999999993,1.8999999999999986,-0.6000000000000014,2.8000000000000007l5.899999999999999,1.3000000000000007c0.3999999999999986,-1.3000000000000007,0.6999999999999993,-2.6999999999999993,0.6999999999999993,-4.100000000000001s-0.1999999999999993,-2.8000000000000007,-0.6999999999999993,-4.1ZM15.5,8.5c1,0,1.8999999999999986,0.1999999999999993,2.8000000000000007,0.5999999999999996l1.3000000000000007,-5.9c-1.3000000000000007,-0.3999999999999999,-2.6999999999999993,-0.7000000000000002,-4.1,-0.7000000000000002s-2.799999999999999,0.20000000000000018,-4.1,0.7000000000000002l1.3000000000000007,5.9c0.9000000000000004,-0.40000000000000036,1.8000000000000007,-0.5999999999999996,2.8000000000000007,-0.5999999999999996ZM8,16c0,-1,0.1999999999999993,-1.9000000000000004,0.5999999999999996,-2.8000000000000007l-5.9,-1.3000000000000007c-0.4999999999999991,1.3000000000000007,-0.6999999999999993,2.700000000000001,-0.6999999999999993,4.100000000000001s0.20000000000000018,2.8000000000000007,0.7000000000000002,4.100000000000001l5.900000000000001,-1.3000000000000007c-0.40000000000000213,-0.9000000000000021,-0.6000000000000014,-1.8000000000000007,-0.6000000000000014,-2.8000000000000007Z"/><path fill="#7289DA" d="M6.6,17.7c-1.0999999999999996,0.1999999999999993,-2.2,-0.5,-2.4000000000000004,-1.6000000000000014c-0.09999999999999964,-0.6999999999999993,-0.20000000000000018,-1.4000000000000004,-0.20000000000000018,-2.0999999999999996c0,-0.5999999999999996,0.09999999999999964,-1.1999999999999993,0.09999999999999964,-1.8000000000000007l-1.5,-0.3000000000000007c-0.3999999999999986,1.3000000000000025,-0.5999999999999988,2.700000000000003,-0.5999999999999988,4.100000000000003s0.20000000000000018,2.8000000000000007,0.7000000000000002,4.100000000000001l5.900000000000001,-1.3000000000000007c-0.1999999999999993,-0.5,-0.3000000000000007,-1,-0.40000000000000036,-1.5l-1.5999999999999996,0.3999999999999986ZM13.8,7.1c-0.1999999999999993,-1.0999999999999996,0.5,-2.2,1.5999999999999996,-2.4000000000000004c0.7000000000000011,-0.09999999999999964,1.4000000000000004,-0.20000000000000018,2.0999999999999996,-0.20000000000000018c0.6000000000000014,0,1.1999999999999993,0.09999999999999964,1.8000000000000007,0.09999999999999964l0.3000000000000007,-1.5c-1.3000000000000007,-0.39999999999999947,-2.6999999999999993,-0.7000000000000002,-4.1,-0.7000000000000002s-2.799999999999999,0.20000000000000018,-4.1,0.7000000000000002l1.2999999999999972,5.900000000000001c0.5,-0.1999999999999993,1,-0.3000000000000007,1.5,-0.40000000000000036l-0.40000000000000036,-1.5ZM24.4,14.3c1.1000000000000014,-0.1999999999999993,2.1999999999999993,0.5,2.3999999999999986,1.5999999999999996c0.10000000000000142,0.7000000000000011,0.1999999999999993,1.4000000000000004,0.1999999999999993,2.0999999999999996c0,0.6000000000000014,-0.10000000000000142,1.1999999999999993,-0.10000000000000142,1.8000000000000007l1.5,0.3000000000000007c0.3999999999999986,-1.3000000000000007,0.6999999999999993,-2.6999999999999993,0.6999999999999993,-4.100000000000001s-0.1999999999999993,-2.8000000000000007,-0.6999999999999993,-4.1l-5.900000000000002,1.3000000000000007c0.1999999999999993,0.5,0.3000000000000007,1,0.3999999999999986,1.5l1.5,-0.40000000000000036ZM17.2,24.9c0.1999999999999993,1.1000000000000014,-0.5,2.1999999999999993,-1.5999999999999996,2.3999999999999986c-0.6999999999999993,0.10000000000000142,-1.4000000000000004,0.1999999999999993,-2.0999999999999996,0.1999999999999993c-0.5999999999999996,0,-1.1999999999999993,-0.10000000000000142,-1.8000000000000007,-0.10000000000000142l-0.3000000000000007,1.5c1.3000000000000007,0.3999999999999986,2.6999999999999993,0.6999999999999993,4.1,0.6999999999999993s2.799999999999999,-0.1999999999999993,4.1,-0.6999999999999993l-1.2999999999999972,-5.899999999999995c-0.5,0.1999999999999993,-1,0.3000000000000007,-1.5,0.3999999999999986l0.3999999999999986,1.5Z"/><path fill="#08808e" d="M15.5,30c-7.7,0,-14,-6.300000000000001,-14,-14s6.3,-14,14,-14s14,6.300000000000001,14,14s-6.300000000000001,14,-14,14ZM15.5,3c-7.199999999999999,0,-13,5.800000000000001,-13,13s5.800000000000001,13,13,13s13,-5.800000000000001,13,-13s-5.800000000000001,-13,-13,-13Z"/><path fill="#08808e" d="M15.5,24c-4.4,0,-8,-3.6000000000000014,-8,-8s3.5999999999999996,-8,8,-8s8,3.5999999999999996,8,8s-3.6000000000000014,8,-8,8ZM15.5,9c-3.9000000000000004,0,-7,3.0999999999999996,-7,7s3.0999999999999996,7,7,7s7,-3.1000000000000014,7,-7s-3.1000000000000014,-7,-7,-7Z"/><path fill="#08808e" d="M2.6,20.6c-0.20000000000000018,0,-0.3999999999999999,-0.10000000000000142,-0.5,-0.3000000000000007c-0.3999999999999999,-1.3999999999999986,-0.7000000000000002,-2.8000000000000007,-0.7000000000000002,-4.300000000000001s0.20000000000000018,-2.9000000000000004,0.7000000000000002,-4.300000000000001c0.10000000000000009,-0.1999999999999993,0.30000000000000027,-0.40000000000000036,0.6000000000000001,-0.3000000000000007l5.900000000000001,1.3000000000000007c0.09999999999999964,0,0.3000000000000007,0.09999999999999964,0.3000000000000007,0.3000000000000007s0.09999999999999964,0.3000000000000007,0,0.40000000000000036c-0.3000000000000007,0.8000000000000007,-0.5,1.700000000000001,-0.5,2.5999999999999996s0.1999999999999993,1.8000000000000007,0.5,2.6000000000000014c0.09999999999999964,0.10000000000000142,0,0.3000000000000007,0,0.3999999999999986s-0.1999999999999993,0.1999999999999993,-0.3000000000000007,0.3000000000000007l-5.9,1.3000000000000007h-0.10000000000000009ZM3,12.500000000000002c-0.2999999999999998,1.1999999999999993,-0.5,2.299999999999999,-0.5,3.4999999999999982s0.20000000000000018,2.3999999999999986,0.5,3.5l4.9,-1.1000000000000014c-0.2999999999999998,-0.8000000000000007,-0.40000000000000036,-1.6000000000000014,-0.40000000000000036,-2.5s0.09999999999999964,-1.6999999999999993,0.40000000000000036,-2.5l-4.9,-0.8999999999999986ZM15.5,30c-1.5,0,-2.9000000000000004,-0.1999999999999993,-4.300000000000001,-0.6999999999999993c-0.1999999999999993,-0.10000000000000142,-0.40000000000000036,-0.3000000000000007,-0.3000000000000007,-0.6000000000000014l1.3000000000000007,-5.900000000000002c0,-0.10000000000000142,0.09999999999999964,-0.3000000000000007,0.3000000000000007,-0.3000000000000007c0.09999999999999964,-0.10000000000000142,0.3000000000000007,-0.10000000000000142,0.40000000000000036,0c1.700000000000001,0.6999999999999993,3.5999999999999996,0.6999999999999993,5.299999999999999,0c0.10000000000000142,-0.10000000000000142,0.3000000000000007,0,0.3999999999999986,0l0.3000000000000007,0.3000000000000007l1.3000000000000007,5.899999999999999c0.10000000000000142,0.3000000000000007,-0.10000000000000142,0.5,-0.3000000000000007,0.6000000000000014c-1.5,0.5,-2.8999999999999986,0.6999999999999993,-4.4,0.6999999999999993ZM12,28.5c2.3000000000000007,0.6999999999999993,4.800000000000001,0.6999999999999993,7.100000000000001,0l-1.1000000000000014,-4.899999999999999c-1.6000000000000014,0.5,-3.3000000000000007,0.5,-4.9,0l-1.0999999999999996,4.899999999999999ZM28.4,20.6h-0.10000000000000142l-5.899999999999999,-1.3000000000000007c-0.10000000000000142,0,-0.3000000000000007,-0.10000000000000142,-0.3000000000000007,-0.3000000000000007s-0.10000000000000142,-0.3000000000000007,0,-0.3999999999999986c0.3000000000000007,-0.8000000000000007,0.5,-1.6999999999999993,0.5,-2.6000000000000014s-0.1999999999999993,-1.8000000000000007,-0.5,-2.5999999999999996c-0.10000000000000142,-0.09999999999999964,0,-0.3000000000000007,0,-0.40000000000000036s0.1999999999999993,-0.1999999999999993,0.3000000000000007,-0.3000000000000007l5.899999999999999,-1.3000000000000007c0.1999999999999993,-0.09999999999999964,0.5,0.09999999999999964,0.6000000000000014,0.3000000000000007c0.3999999999999986,1.4000000000000004,0.6999999999999993,2.8000000000000007,0.6999999999999993,4.300000000000001s-0.1999999999999993,2.8999999999999986,-0.6999999999999993,4.300000000000001c-0.10000000000000142,0.1999999999999993,-0.3000000000000007,0.3000000000000007,-0.5,0.3000000000000007ZM23.099999999999998,18.5l4.900000000000002,1.1000000000000014c0.3000000000000007,-1.1999999999999993,0.5,-2.3000000000000007,0.5,-3.5s-0.1999999999999993,-2.4000000000000004,-0.5,-3.5l-4.899999999999999,1.0999999999999996c0.3000000000000007,0.8000000000000007,0.3999999999999986,1.5999999999999996,0.3999999999999986,2.5000000000000018s-0.10000000000000142,1.5,-0.3999999999999986,2.3000000000000007ZM12.7,9.6c-0.09999999999999964,0,-0.1999999999999993,0,-0.1999999999999993,-0.09999999999999964l-0.3000000000000007,-0.3000000000000007l-1.3000000000000007,-5.9c-0.09999999999999964,-0.2999999999999998,0.09999999999999964,-0.5,0.3000000000000007,-0.5999999999999996c2.8000000000000007,-0.9000000000000004,5.800000000000001,-0.9000000000000004,8.599999999999998,0c0.1999999999999993,0.09999999999999964,0.3999999999999986,0.2999999999999998,0.3000000000000007,0.5999999999999996l-1.3000000000000007,5.9c0,0.09999999999999964,-0.10000000000000142,0.3000000000000007,-0.3000000000000007,0.3000000000000007c-0.10000000000000142,0.09999999999999964,-0.3000000000000007,0.09999999999999964,-0.3999999999999986,0c-1.6999999999999993,-0.6999999999999993,-3.5999999999999996,-0.6999999999999993,-5.300000000000001,0l-0.09999999999999964,0.09999999999999964ZM12,3.5l1,4.9c1.5999999999999996,-0.5,3.3000000000000007,-0.5,4.899999999999999,0l1.1000000000000014,-4.9c-2.3000000000000007,-0.7000000000000002,-4.699999999999999,-0.7000000000000002,-7,0Z"/></svg>